<svg id="visual" viewBox="0 0 900 600" width="900" height="600" xmlns="http://www.w3.org/2000/svg" xmlns:xlink="http://www.w3.org/1999/xlink" version="1.1"><path d="M0 151L16.7 143C33.3 135 66.7 119 100 108C133.3 97 166.7 91 200 84C233.3 77 266.7 69 300 79C333.3 89 366.7 117 400 126C433.3 135 466.7 125 500 128C533.3 131 566.7 147 600 152C633.3 157 666.7 151 700 147C733.3 143 766.7 141 800 137C833.3 133 866.7 127 883.3 124L900 121L900 0L883.3 0C866.7 0 833.3 0 800 0C766.7 0 733.3 0 700 0C666.7 0 633.3 0 600 0C566.7 0 533.3 0 500 0C466.7 0 433.3 0 400 0C366.7 0 333.3 0 300 0C266.7 0 233.3 0 200 0C166.7 0 133.3 0 100 0C66.7 0 33.3 0 16.7 0L0 0Z" fill="#000000"></path><path d="M0 175L16.7 171C33.3 167 66.7 159 100 154C133.3 149 166.7 147 200 144C233.3 141 266.7 137 300 149C333.3 161 366.7 189 400 194C433.3 199 466.7 181 500 184C533.3 187 566.7 211 600 214C633.3 217 666.7 199 700 191C733.3 183 766.7 185 800 181C833.3 177 866.7 167 883.3 162L900 157L900 119L883.3 122C866.7 125 833.3 131 800 135C766.7 139 733.3 141 700 145C666.7 149 633.3 155 600 150C566.7 145 533.3 129 500 126C466.7 123 433.3 133 400 124C366.7 115 333.3 87 300 77C266.7 67 233.3 75 200 82C166.7 89 133.3 95 100 106C66.7 117 33.3 133 16.7 141L0 149Z" fill="#5b0000"></path><path d="M0 307L16.7 304C33.3 301 66.7 295 100 297C133.3 299 166.7 309 200 306C233.3 303 266.7 287 300 291C333.3 295 366.7 319 400 328C433.3 337 466.7 331 500 337C533.3 343 566.7 361 600 350C633.3 339 666.7 299 700 296C733.3 293 766.7 327 800 341C833.3 355 866.7 349 883.3 346L900 343L900 155L883.3 160C866.7 165 833.3 175 800 179C766.7 183 733.3 181 700 189C666.7 197 633.3 215 600 212C566.7 209 533.3 185 500 182C466.7 179 433.3 197 400 192C366.7 187 333.3 159 300 147C266.7 135 233.3 139 200 142C166.7 145 133.3 147 100 152C66.7 157 33.3 165 16.7 169L0 173Z" fill="#730000"></path><path d="M0 391L16.7 384C33.3 377 66.7 363 100 367C133.3 371 166.7 393 200 392C233.3 391 266.7 367 300 364C333.3 361 366.7 379 400 387C433.3 395 466.7 393 500 395C533.3 397 566.7 403 600 392C633.3 381 666.7 353 700 351C733.3 349 766.7 373 800 382C833.3 391 866.7 385 883.3 382L900 379L900 341L883.3 344C866.7 347 833.3 353 800 339C766.7 325 733.3 291 700 294C666.7 297 633.3 337 600 348C566.7 359 533.3 341 500 335C466.7 329 433.3 335 400 326C366.7 317 333.3 293 300 289C266.7 285 233.3 301 200 304C166.7 307 133.3 297 100 295C66.7 293 33.3 299 16.7 302L0 305Z" fill="#8c0000"></path><path d="M0 433L16.7 427C33.3 421 66.7 409 100 410C133.3 411 166.7 425 200 419C233.3 413 266.7 387 300 385C333.3 383 366.7 405 400 415C433.3 425 466.7 423 500 426C533.3 429 566.7 437 600 429C633.3 421 666.7 397 700 393C733.3 389 766.7 405 800 409C833.3 413 866.7 405 883.3 401L900 397L900 377L883.3 380C866.7 383 833.3 389 800 380C766.7 371 733.3 347 700 349C666.7 351 633.3 379 600 390C566.7 401 533.3 395 500 393C466.7 391 433.3 393 400 385C366.7 377 333.3 359 300 362C266.7 365 233.3 389 200 390C166.7 391 133.3 369 100 365C66.7 361 33.3 375 16.7 382L0 389Z" fill="#a60000"></path><path d="M0 463L16.7 462C33.3 461 66.7 459 100 459C133.3 459 166.7 461 200 454C233.3 447 266.7 431 300 429C333.3 427 366.7 439 400 444C433.3 449 466.7 447 500 452C533.3 457 566.7 469 600 464C633.3 459 666.7 437 700 438C733.3 439 766.7 463 800 466C833.3 469 866.7 451 883.3 442L900 433L900 395L883.3 399C866.7 403 833.3 411 800 407C766.7 403 733.3 387 700 391C666.7 395 633.3 419 600 427C566.7 435 533.3 427 500 424C466.7 421 433.3 423 400 413C366.7 403 333.3 381 300 383C266.7 385 233.3 411 200 417C166.7 423 133.3 409 100 408C66.7 407 33.3 419 16.7 425L0 431Z" fill="#bc0001"></path><path d="M0 511L16.7 508C33.3 505 66.7 499 100 500C133.3 501 166.7 509 200 505C233.3 501 266.7 485 300 481C333.3 477 366.7 485 400 490C433.3 495 466.7 497 500 500C533.3 503 566.7 507 600 499C633.3 491 666.7 471 700 472C733.3 473 766.7 495 800 501C833.3 507 866.7 497 883.3 492L900 487L900 431L883.3 440C866.7 449 833.3 467 800 464C766.7 461 733.3 437 700 436C666.7 435 633.3 457 600 462C566.7 467 533.3 455 500 450C466.7 445 433.3 447 400 442C366.7 437 333.3 425 300 427C266.7 429 233.3 445 200 452C166.7 459 133.3 457 100 457C66.7 457 33.3 459 16.7 460L0 461Z" fill="#d20000"></path><path d="M0 553L16.7 548C33.3 543 66.7 533 100 531C133.3 529 166.7 535 200 535C233.3 535 266.7 529 300 526C333.3 523 366.7 523 400 522C433.3 521 466.7 519 500 525C533.3 531 566.7 545 600 542C633.3 539 666.7 519 700 515C733.3 511 766.7 523 800 528C833.3 533 866.7 531 883.3 530L900 529L900 485L883.3 490C866.7 495 833.3 505 800 499C766.7 493 733.3 471 700 470C666.7 469 633.3 489 600 497C566.7 505 533.3 501 500 498C466.7 495 433.3 493 400 488C366.7 483 333.3 475 300 479C266.7 483 233.3 499 200 503C166.7 507 133.3 499 100 498C66.7 497 33.3 503 16.7 506L0 509Z" fill="#e80000"></path><path d="M0 601L16.7 601C33.3 601 66.7 601 100 601C133.3 601 166.7 601 200 601C233.3 601 266.7 601 300 601C333.3 601 366.7 601 400 601C433.3 601 466.7 601 500 601C533.3 601 566.7 601 600 601C633.3 601 666.7 601 700 601C733.3 601 766.7 601 800 601C833.3 601 866.7 601 883.3 601L900 601L900 527L883.3 528C866.7 529 833.3 531 800 526C766.7 521 733.3 509 700 513C666.7 517 633.3 537 600 540C566.7 543 533.3 529 500 523C466.7 517 433.3 519 400 520C366.7 521 333.3 521 300 524C266.7 527 233.3 533 200 533C166.7 533 133.3 527 100 529C66.7 531 33.3 541 16.7 546L0 551Z" fill="#ff0000"></path></svg>